Coordinates
version=1
nRows=8
nColumns=40
inDegrees=yes

Units are S.I. units (second, meters, Newtons, ...)
Angles are in degrees.

endheader
time	pelvis_tilt	pelvis_list	pelvis_rotation	pelvis_tx	pelvis_ty	pelvis_tz	hip_flexion_r	hip_adduction_r	hip_rotation_r	knee_angle_r	knee_angle_r_beta	ankle_angle_r	subtalar_angle_r	mtp_angle_r	hip_flexion_l	hip_adduction_l	hip_rotation_l	knee_angle_l	knee_angle_l_beta	ankle_angle_l	subtalar_angle_l	mtp_angle_l	lumbar_extension	lumbar_bending	lumbar_rotation	arm_flex_r	arm_add_r	arm_rot_r	elbow_flex_r	pro_sup_r	wrist_flex_r	wrist_dev_r	arm_flex_l	arm_add_l	arm_rot_l	elbow_flex_l	pro_sup_l	wrist_flex_l	wrist_dev_l
     53.66000000	     -3.99180740	     -4.81395207	      0.09295273	      1.13222100	      0.93299297	      0.42296010	     27.77666913	     -7.93517619	     -5.37705322	     60.96770189	     60.96770189	      2.99370127	    -10.70407755	      0.23214379	     16.18066286	     -5.86939504	     -7.71446764	     22.36949198	     22.36949198	     12.17787271	     -9.33504601	     -1.61791060	    -10.87735052	      3.72601936	      1.54049446	     17.27482499	    -11.77476374	     -0.10940911	     46.58419078	     43.04476262	      0.00000000	      0.00000000	     14.96761178	    -12.78660438	     -1.14553979	     43.22072085	     43.12528787	      0.00000000	      0.00000000
     53.67328571	     -4.09416004	     -5.15668632	     -0.22177443	      1.13146862	      0.93334653	      0.42276527	     28.61717066	     -7.48015891	     -5.36698392	     59.10930503	     59.10930503	      2.67097079	    -10.71842731	     -0.85456882	     15.81208313	     -6.23380063	     -7.78208159	     22.19798501	     22.19798501	     12.31623251	     -9.53229803	     -1.86105497	    -10.99164037	      4.10780170	      1.48423028	     16.17024062	    -11.95426396	      0.03618392	     42.78045249	     43.34679478	      0.00000000	      0.00000000	     15.97849440	    -13.07613868	     -1.14906481	     43.98900873	     43.36040107	      0.00000000	      0.00000000
     53.68657143	     -4.16184926	     -5.52089947	     -0.54048745	      1.13079652	      0.93373166	      0.42260640	     29.30399889	     -6.96696134	     -5.36300421	     57.05874048	     57.05874048	      2.64259631	    -10.52588478	     -0.82708775	     15.40382097	     -6.61618986	     -7.84622695	     22.04479478	     22.04479478	     12.54588608	     -9.72735724	     -1.88898291	    -11.21380873	      4.52848751	      1.76692291	     14.29636870	    -12.49539532	      0.09740601	     40.90095231	     43.44053852	      0.00000000	      0.00000000	     17.03909160	    -13.18881828	     -1.33744128	     45.16731569	     43.44210542	      0.00000000	      0.00000000
     53.69985714	     -4.32109848	     -5.66829266	     -0.86432184	      1.13011198	      0.93379331	      0.42245555	     30.03207282	     -6.68033442	     -5.29011249	     54.89252649	     54.89252649	      2.71586497	    -10.16103256	     -0.65872518	     15.13678975	     -6.78114285	     -8.00022974	     21.97658123	     21.97658123	     12.76042460	     -9.89537021	     -1.93995657	    -11.30825365	      4.71986118	      1.34741398	     12.63203391	    -12.63943530	      0.13506250	     39.86734461	     43.47684507	      0.00000000	      0.00000000	     17.84997240	    -13.81931121	     -1.53161935	     45.69147710	     43.48341863	      0.00000000	      0.00000000
     53.71314286	     -4.30593663	     -6.13547691	     -1.20837519	      1.12968351	      0.93428220	      0.42243522	     30.28492695	     -6.03724666	     -5.43961888	     52.23927666	     52.23927666	      2.59156425	     -9.75554016	     -0.57497579	     14.56234499	     -7.26906295	     -8.02492665	     21.71884893	     21.71884893	     12.99994846	    -10.06643364	     -1.95549550	    -11.61908679	      5.26430423	      2.19735331	     10.90205434	    -13.33993901	      0.16140759	     36.95183820	     43.61251333	      0.00000000	      0.00000000	     18.90833609	    -13.52041212	     -1.64932685	     47.45984432	     43.55504390	      0.00000000	      0.00000000
     53.72642857	     -4.42997279	     -6.24635849	     -1.56481272	      1.12916772	      0.93425596	      0.42252516	     30.65097776	     -5.70198709	     -5.36291134	     49.40811324	     49.40811324	      2.19726472	     -9.46229756	     -1.93843452	     14.20202077	     -7.40288388	     -8.23165795	     21.57191816	     21.57191816	     13.19488532	    -10.24711552	     -2.15083523	    -11.70624396	      5.39602287	      1.17093077	     11.85430699	    -12.54044522	     -0.78171671	     29.81882099	     44.17676194	      0.00000000	      0.00000000	     18.26033781	    -14.62183113	     -2.08467044	     50.78587945	     43.88382265	      0.00000000	      0.00000000
     53.73971429	     -4.57899822	     -6.43209564	     -1.91688119	      1.12875684	      0.93420670	      0.42268006	     30.90335933	     -5.31066281	     -5.43657144	     46.34773724	     46.34773724	      2.30216555	     -8.58676473	     -1.72179244	     13.86668591	     -7.60719518	     -8.34639428	     21.42552198	     21.42552198	     13.42848414	    -10.46018505	     -2.15908468	    -11.80774347	      5.67346732	      1.24465497	     10.17373137	    -12.95323293	     -0.88176812	     28.77689210	     44.23465048	      0.00000000	      0.00000000	     18.99324542	    -14.82257834	     -2.36918178	     51.69004347	     43.95071510	      0.00000000	      0.00000000
     53.75300000	     -4.72578445	     -6.53050483	     -2.29200536	      1.12841378	      0.93405062	      0.42293720	     31.02113949	     -4.98535320	     -5.54310062	     43.01649169	     43.01649169	      2.42024104	     -7.47325235	     -1.58674403	     13.53091346	     -7.72529565	     -8.51273180	     21.30092123	     21.30092123	     13.66073323	    -10.69848029	     -2.16449530	    -11.92789475	      5.83491275	      1.48469503	      8.49754659	    -13.36492744	     -1.02465943	     27.58244509	     44.30485118	      0.00000000	      0.00000000	     19.65151628	    -14.94734368	     -2.66538136	     52.93599548	     44.02216559	      0.00000000	      0.00000000
